<?xml version="1.0" encoding="utf-8" ?>
<svg version="1.2" width="80.000000mm" height="80.000000mm" viewBox="0.000000 0.000000 80.000000 80.000000" xmlns="http://www.w3.org/2000/svg" xmlns:xlink="http://www.w3.org/1999/xlink">
    <defs />
    <g id="items" />
    <circle cx="40.863083" cy="39.108865" fill="#f1781c" fill-opacity="1.000000" r="6.000000" />
    <circle cx="23.226647" cy="52.068995" fill="#f1781c" fill-opacity="1.000000" r="6.000000" />
    <circle cx="44.525877" cy="65.985962" fill="#f1781c" fill-opacity="1.000000" r="6.000000" />
    <circle cx="18.663036" cy="31.743971" fill="#f1781c" fill-opacity="1.000000" r="6.000000" />
    <circle cx="60.075560" cy="48.154702" fill="#3ca9c4" fill-opacity="1.000000" r="5.000000" />
    <circle cx="37.737849" cy="18.771450" fill="#3ca9c4" fill-opacity="1.000000" r="5.000000" />
    <circle cx="55.550739" cy="27.952593" fill="#3ca9c4" fill-opacity="1.000000" r="5.000000" />
    <circle cx="69.721834" cy="35.627901" fill="#3ca9c4" fill-opacity="1.000000" r="5.000000" />
    <circle cx="51.831033" cy="13.106440" fill="#92c1db" fill-opacity="1.000000" r="4.000000" />
    <circle cx="22.616159" cy="14.781227" fill="#92c1db" fill-opacity="1.000000" r="4.000000" />
    <circle cx="29.853954" cy="68.267463" fill="#92c1db" fill-opacity="1.000000" r="4.000000" />
    <circle cx="58.577883" cy="62.296032" fill="#92c1db" fill-opacity="1.000000" r="4.000000" />
    <circle cx="9.522080" cy="45.844735" fill="#92c1db" fill-opacity="1.000000" r="4.000000" />
    <circle cx="37.525114" cy="53.168456" fill="#92c1db" fill-opacity="1.000000" r="4.000000" />
    <circle cx="61.918532" cy="17.699908" fill="#92c1db" fill-opacity="1.000000" r="4.000000" />
    <circle cx="19.095396" cy="63.892207" fill="#92c1db" fill-opacity="1.000000" r="4.000000" />
    <circle cx="47.794548" cy="53.200656" fill="#89e5bd" fill-opacity="1.000000" r="3.000000" />
    <circle cx="41.731160" cy="8.150799" fill="#89e5bd" fill-opacity="1.000000" r="3.000000" />
    <circle cx="32.340836" cy="29.470533" fill="#89e5bd" fill-opacity="1.000000" r="3.000000" />
    <circle cx="31.841579" cy="7.543704" fill="#89e5bd" fill-opacity="1.000000" r="3.000000" />
    <circle cx="72.772737" cy="47.805006" fill="#89e5bd" fill-opacity="1.000000" r="3.000000" />
    <circle cx="67.824292" cy="56.049358" fill="#89e5bd" fill-opacity="1.000000" r="3.000000" />
    <circle cx="10.762694" cy="57.024648" fill="#89e5bd" fill-opacity="1.000000" r="3.000000" />
    <circle cx="28.657716" cy="40.261125" fill="#89e5bd" fill-opacity="1.000000" r="3.000000" />
    <circle cx="13.722244" cy="19.784046" fill="#89e5bd" fill-opacity="1.000000" r="3.000000" />
    <circle cx="6.507269" cy="34.822060" fill="#89e5bd" fill-opacity="1.000000" r="3.000000" />
    <circle cx="53.080388" cy="38.968090" fill="#89e5bd" fill-opacity="1.000000" r="3.000000" />
    <circle cx="69.678623" cy="24.283040" fill="#89e5bd" fill-opacity="1.000000" r="3.000000" />
    <circle cx="43.801790" cy="27.338711" fill="#89e5bd" fill-opacity="1.000000" r="3.000000" />
    <circle cx="6.950659" cy="25.729651" fill="#89e5bd" fill-opacity="1.000000" r="3.000000" />
    <circle cx="55.607709" cy="72.439287" fill="#89e5bd" fill-opacity="1.000000" r="3.000000" />
    <circle cx="26.370391" cy="23.331028" fill="#89e5bd" fill-opacity="1.000000" r="3.000000" />
    <circle cx="36.828455" cy="74.795704" fill="#ed80ca" fill-opacity="1.000000" r="2.000000" />
    <circle cx="17.410775" cy="43.139202" fill="#ed80ca" fill-opacity="1.000000" r="2.000000" />
    <circle cx="31.749240" cy="59.628395" fill="#ed80ca" fill-opacity="1.000000" r="2.000000" />
    <circle cx="48.444830" cy="21.241980" fill="#ed80ca" fill-opacity="1.000000" r="2.000000" />
    <circle cx="49.499385" cy="45.466820" fill="#ed80ca" fill-opacity="1.000000" r="2.000000" />
    <circle cx="60.200041" cy="36.406955" fill="#ed80ca" fill-opacity="1.000000" r="2.000000" />
    <circle cx="32.180842" cy="46.599642" fill="#ed80ca" fill-opacity="1.000000" r="2.000000" />
    <circle cx="48.985682" cy="4.108077" fill="#ed80ca" fill-opacity="1.000000" r="2.000000" />
    <circle cx="68.042495" cy="64.135623" fill="#ed80ca" fill-opacity="1.000000" r="2.000000" />
    <circle cx="60.046713" cy="8.902426" fill="#ed80ca" fill-opacity="1.000000" r="2.000000" />
    <circle cx="21.775413" cy="72.198677" fill="#ed80ca" fill-opacity="1.000000" r="2.000000" />
    <circle cx="54.381792" cy="55.285059" fill="#ed80ca" fill-opacity="1.000000" r="2.000000" />
    <circle cx="42.881727" cy="76.886123" fill="#ed80ca" fill-opacity="1.000000" r="2.000000" />
    <circle cx="49.416750" cy="75.780438" fill="#ed80ca" fill-opacity="1.000000" r="2.000000" />
    <circle cx="24.332937" cy="6.481091" fill="#ed80ca" fill-opacity="1.000000" r="2.000000" />
    <circle cx="76.953491" cy="41.838474" fill="#ed80ca" fill-opacity="1.000000" r="2.000000" />
    <circle cx="64.378063" cy="28.770512" fill="#ed80ca" fill-opacity="1.000000" r="2.000000" />
    <circle cx="48.164124" cy="32.706939" fill="#ed80ca" fill-opacity="1.000000" r="2.000000" />
    <circle cx="30.210410" cy="14.117340" fill="#ed80ca" fill-opacity="1.000000" r="2.000000" />
    <circle cx="26.330308" cy="61.276654" fill="#ed80ca" fill-opacity="1.000000" r="2.000000" />
    <circle cx="3.011113" cy="40.852120" fill="#ed80ca" fill-opacity="1.000000" r="2.000000" />
    <circle cx="61.943128" cy="69.789192" fill="#ed80ca" fill-opacity="1.000000" r="2.000000" />
    <circle cx="5.250210" cy="52.704918" fill="#ed80ca" fill-opacity="1.000000" r="2.000000" />
    <circle cx="19.922362" cy="21.992061" fill="#ed80ca" fill-opacity="1.000000" r="2.000000" />
    <circle cx="12.032655" cy="38.648978" fill="#ed80ca" fill-opacity="1.000000" r="2.000000" />
    <circle cx="14.804900" cy="12.904417" fill="#ed80ca" fill-opacity="1.000000" r="2.000000" />
    <circle cx="67.483463" cy="43.862110" fill="#ed80ca" fill-opacity="1.000000" r="2.000000" />
    <circle cx="75.117311" cy="28.352087" fill="#ed80ca" fill-opacity="1.000000" r="2.000000" />
    <circle cx="43.192984" cy="48.339172" fill="#ed80ca" fill-opacity="1.000000" r="2.000000" />
    <circle cx="37.033012" cy="3.120584" fill="#ed80ca" fill-opacity="1.000000" r="2.000000" />
    <circle cx="22.158049" cy="40.509273" fill="#ed80ca" fill-opacity="1.000000" r="2.000000" />
    <circle cx="31.320163" cy="75.965988" fill="#ed80ca" fill-opacity="1.000000" r="2.000000" />
    <circle cx="35.341586" cy="63.878622" fill="#3ca9c4" fill-opacity="1.000000" r="1.000000" />
    <circle cx="27.763883" cy="34.195555" fill="#3ca9c4" fill-opacity="1.000000" r="1.000000" />
    <circle cx="10.659977" cy="64.146452" fill="#3ca9c4" fill-opacity="1.000000" r="1.000000" />
    <circle cx="44.916642" cy="13.919093" fill="#3ca9c4" fill-opacity="1.000000" r="1.000000" />
    <circle cx="51.632799" cy="59.740806" fill="#3ca9c4" fill-opacity="1.000000" r="1.000000" />
    <circle cx="54.706600" cy="4.962374" fill="#3ca9c4" fill-opacity="1.000000" r="1.000000" />
    <circle cx="70.332729" cy="17.110993" fill="#3ca9c4" fill-opacity="1.000000" r="1.000000" />
    <circle cx="75.037237" cy="54.707527" fill="#3ca9c4" fill-opacity="1.000000" r="1.000000" />
    <circle cx="55.166413" cy="20.129543" fill="#3ca9c4" fill-opacity="1.000000" r="1.000000" />
    <circle cx="13.638920" cy="51.284026" fill="#3ca9c4" fill-opacity="1.000000" r="1.000000" />
    <circle cx="63.343797" cy="40.648865" fill="#3ca9c4" fill-opacity="1.000000" r="1.000000" />
    <circle cx="37.256799" cy="60.458974" fill="#3ca9c4" fill-opacity="1.000000" r="1.000000" />
    <circle cx="38.605896" cy="30.333436" fill="#3ca9c4" fill-opacity="1.000000" r="1.000000" />
    <circle cx="32.304914" cy="35.427829" fill="#3ca9c4" fill-opacity="1.000000" r="1.000000" />
    <circle cx="62.153238" cy="55.826278" fill="#3ca9c4" fill-opacity="1.000000" r="1.000000" />
    <circle cx="26.053491" cy="75.346604" fill="#3ca9c4" fill-opacity="1.000000" r="1.000000" />
    <circle cx="43.364873" cy="56.981997" fill="#3ca9c4" fill-opacity="1.000000" r="1.000000" />
    <circle cx="53.462028" cy="66.933774" fill="#3ca9c4" fill-opacity="1.000000" r="1.000000" />
    <circle cx="36.481658" cy="11.281191" fill="#3ca9c4" fill-opacity="1.000000" r="1.000000" />
    <circle cx="36.454702" cy="70.103778" fill="#3ca9c4" fill-opacity="1.000000" r="1.000000" />
    <circle cx="37.422089" cy="26.896168" fill="#3ca9c4" fill-opacity="1.000000" r="1.000000" />
    <circle cx="52.532249" cy="49.505638" fill="#3ca9c4" fill-opacity="1.000000" r="1.000000" />
    <circle cx="44.497802" cy="2.268093" fill="#3ca9c4" fill-opacity="1.000000" r="1.000000" />
    <circle cx="67.602898" cy="50.135186" fill="#3ca9c4" fill-opacity="1.000000" r="1.000000" />
    <circle cx="29.997207" cy="19.146345" fill="#3ca9c4" fill-opacity="1.000000" r="1.000000" />
    <circle cx="62.281835" cy="24.402168" fill="#3ca9c4" fill-opacity="1.000000" r="1.000000" />
    <circle cx="19.578145" cy="7.955719" fill="#3ca9c4" fill-opacity="1.000000" r="1.000000" />
    <circle cx="16.254920" cy="57.601456" fill="#3ca9c4" fill-opacity="1.000000" r="1.000000" />
    <circle cx="45.424553" cy="17.747942" fill="#3ca9c4" fill-opacity="1.000000" r="1.000000" />
    <circle cx="12.692402" cy="25.402472" fill="#3ca9c4" fill-opacity="1.000000" r="1.000000" />
    <circle cx="77.893930" cy="37.178183" fill="#3ca9c4" fill-opacity="1.000000" r="1.000000" />
    <circle cx="64.374152" cy="10.847678" fill="#3ca9c4" fill-opacity="1.000000" r="1.000000" />
    <circle cx="10.051674" cy="30.366170" fill="#3ca9c4" fill-opacity="1.000000" r="1.000000" />
    <circle cx="32.021769" cy="23.807250" fill="#3ca9c4" fill-opacity="1.000000" r="1.000000" />
    <circle cx="58.285018" cy="40.712688" fill="#3ca9c4" fill-opacity="1.000000" r="1.000000" />
    <circle cx="71.787650" cy="60.819850" fill="#3ca9c4" fill-opacity="1.000000" r="1.000000" />
    <circle cx="15.886732" cy="47.502152" fill="#3ca9c4" fill-opacity="1.000000" r="1.000000" />
    <circle cx="26.877900" cy="28.918577" fill="#3ca9c4" fill-opacity="1.000000" r="1.000000" />
    <circle cx="77.268423" cy="32.585189" fill="#3ca9c4" fill-opacity="1.000000" r="1.000000" />
    <circle cx="7.729641" cy="19.935803" fill="#3ca9c4" fill-opacity="1.000000" r="1.000000" />
    <circle cx="2.967879" cy="48.520692" fill="#3ca9c4" fill-opacity="1.000000" r="1.000000" />
    <circle cx="47.473485" cy="8.418776" fill="#3ca9c4" fill-opacity="1.000000" r="1.000000" />
    <circle cx="31.302091" cy="55.093516" fill="#3ca9c4" fill-opacity="1.000000" r="1.000000" />
    <circle cx="36.859553" cy="46.448909" fill="#3ca9c4" fill-opacity="1.000000" r="1.000000" />
    <circle cx="65.058251" cy="60.746263" fill="#3ca9c4" fill-opacity="1.000000" r="1.000000" />
    <circle cx="68.025108" cy="14.339111" fill="#3ca9c4" fill-opacity="1.000000" r="1.000000" />
    <circle cx="73.520362" cy="57.898119" fill="#3ca9c4" fill-opacity="1.000000" r="1.000000" />
    <circle cx="17.380081" cy="70.532389" fill="#3ca9c4" fill-opacity="1.000000" r="1.000000" />
    <circle cx="27.054708" cy="10.111651" fill="#3ca9c4" fill-opacity="1.000000" r="1.000000" />
    <circle cx="3.290722" cy="30.180772" fill="#3ca9c4" fill-opacity="1.000000" r="1.000000" />
    <circle cx="63.948541" cy="65.973907" fill="#3ca9c4" fill-opacity="1.000000" r="1.000000" />
    <circle cx="61.641463" cy="32.129088" fill="#3ca9c4" fill-opacity="1.000000" r="1.000000" />
    <circle cx="12.978495" cy="66.715891" fill="#3ca9c4" fill-opacity="1.000000" r="1.000000" />
    <circle cx="58.804451" cy="55.507014" fill="#3ca9c4" fill-opacity="1.000000" r="1.000000" />
    <circle cx="53.801791" cy="44.270062" fill="#3ca9c4" fill-opacity="1.000000" r="1.000000" />
    <circle cx="72.481034" cy="42.422633" fill="#3ca9c4" fill-opacity="1.000000" r="1.000000" />
    <circle cx="31.478057" cy="50.927281" fill="#3ca9c4" fill-opacity="1.000000" r="1.000000" />
    <circle cx="48.508802" cy="58.497975" fill="#3ca9c4" fill-opacity="1.000000" r="1.000000" />
    <circle cx="2.359230" cy="45.208039" fill="#3ca9c4" fill-opacity="1.000000" r="1.000000" />
    <circle cx="55.792685" cy="8.081249" fill="#3ca9c4" fill-opacity="1.000000" r="1.000000" />
    <circle cx="52.425541" cy="62.992436" fill="#3ca9c4" fill-opacity="1.000000" r="1.000000" />
    <circle cx="13.124023" cy="61.910576" fill="#3ca9c4" fill-opacity="1.000000" r="1.000000" />
    <circle cx="40.295156" cy="58.924638" fill="#3ca9c4" fill-opacity="1.000000" r="1.000000" />
    <circle cx="24.770860" cy="43.792287" fill="#3ca9c4" fill-opacity="1.000000" r="1.000000" />
    <circle cx="58.140404" cy="12.599122" fill="#f1781c" fill-opacity="1.000000" r="0.500000" />
    <circle cx="72.138872" cy="52.917713" fill="#f1781c" fill-opacity="1.000000" r="0.500000" />
    <circle cx="15.350017" cy="54.140191" fill="#f1781c" fill-opacity="1.000000" r="0.500000" />
    <circle cx="41.292855" cy="1.522137" fill="#f1781c" fill-opacity="1.000000" r="0.500000" />
    <circle cx="23.571055" cy="68.579729" fill="#f1781c" fill-opacity="1.000000" r="0.500000" />
    <circle cx="44.230907" cy="22.009297" fill="#f1781c" fill-opacity="1.000000" r="0.500000" />
    <circle cx="7.352147" cy="40.047168" fill="#f1781c" fill-opacity="1.000000" r="0.500000" />
    <circle cx="48.718349" cy="25.498724" fill="#f1781c" fill-opacity="1.000000" r="0.500000" />
    <circle cx="67.789333" cy="19.452225" fill="#f1781c" fill-opacity="1.000000" r="0.500000" />
    <circle cx="33.410581" cy="42.508360" fill="#f1781c" fill-opacity="1.000000" r="0.500000" />
    <circle cx="50.315393" cy="71.764476" fill="#f1781c" fill-opacity="1.000000" r="0.500000" />
    <circle cx="52.049087" cy="7.021638" fill="#f1781c" fill-opacity="1.000000" r="0.500000" />
    <circle cx="27.948312" cy="45.137684" fill="#f1781c" fill-opacity="1.000000" r="0.500000" />
    <circle cx="36.510484" cy="66.877205" fill="#f1781c" fill-opacity="1.000000" r="0.500000" />
    <circle cx="27.770544" cy="3.495514" fill="#f1781c" fill-opacity="1.000000" r="0.500000" />
    <circle cx="40.704740" cy="73.185496" fill="#f1781c" fill-opacity="1.000000" r="0.500000" />
    <circle cx="9.348563" cy="52.255233" fill="#f1781c" fill-opacity="1.000000" r="0.500000" />
    <circle cx="52.319046" cy="19.305856" fill="#f1781c" fill-opacity="1.000000" r="0.500000" />
    <circle cx="25.454470" cy="36.327450" fill="#f1781c" fill-opacity="1.000000" r="0.500000" />
    <circle cx="10.911244" cy="14.779730" fill="#f1781c" fill-opacity="1.000000" r="0.500000" />
    <circle cx="56.234912" cy="34.882953" fill="#f1781c" fill-opacity="1.000000" r="0.500000" />
    <circle cx="72.464155" cy="19.306659" fill="#f1781c" fill-opacity="1.000000" r="0.500000" />
    <circle cx="48.445257" cy="41.492270" fill="#f1781c" fill-opacity="1.000000" r="0.500000" />
    <circle cx="76.613083" cy="51.904848" fill="#f1781c" fill-opacity="1.000000" r="0.500000" />
    <circle cx="77.999628" cy="46.180329" fill="#f1781c" fill-opacity="1.000000" r="0.500000" />
    <circle cx="45.613418" cy="74.142643" fill="#f1781c" fill-opacity="1.000000" r="0.500000" />
    <circle cx="46.016454" cy="10.910011" fill="#f1781c" fill-opacity="1.000000" r="0.500000" />
    <circle cx="17.082925" cy="9.065490" fill="#f1781c" fill-opacity="1.000000" r="0.500000" />
    <circle cx="48.604971" cy="36.725443" fill="#f1781c" fill-opacity="1.000000" r="0.500000" />
    <circle cx="8.376654" cy="61.957560" fill="#f1781c" fill-opacity="1.000000" r="0.500000" />
    <circle cx="52.090221" cy="34.007389" fill="#f1781c" fill-opacity="1.000000" r="0.500000" />
    <circle cx="15.957933" cy="39.303874" fill="#f1781c" fill-opacity="1.000000" r="0.500000" />
    <circle cx="36.418112" cy="32.439618" fill="#f1781c" fill-opacity="1.000000" r="0.500000" />
    <circle cx="42.013196" cy="13.058645" fill="#f1781c" fill-opacity="1.000000" r="0.500000" />
    <circle cx="16.369164" cy="24.211485" fill="#f1781c" fill-opacity="1.000000" r="0.500000" />
    <circle cx="48.580797" cy="28.707712" fill="#f1781c" fill-opacity="1.000000" r="0.500000" />
    <circle cx="32.888561" cy="2.163868" fill="#f1781c" fill-opacity="1.000000" r="0.500000" />
    <circle cx="34.934345" cy="25.328238" fill="#f1781c" fill-opacity="1.000000" r="0.500000" />
    <circle cx="36.661941" cy="7.064872" fill="#f1781c" fill-opacity="1.000000" r="0.500000" />
    <circle cx="64.880819" cy="22.787032" fill="#f1781c" fill-opacity="1.000000" r="0.500000" />
    <circle cx="34.007506" cy="12.719083" fill="#f1781c" fill-opacity="1.000000" r="0.500000" />
    <circle cx="75.105911" cy="24.196745" fill="#f1781c" fill-opacity="1.000000" r="0.500000" />
    <circle cx="51.668639" cy="69.396986" fill="#f1781c" fill-opacity="1.000000" r="0.500000" />
    <circle cx="5.401318" cy="56.887102" fill="#f1781c" fill-opacity="1.000000" r="0.500000" />
    <circle cx="9.058513" cy="17.092352" fill="#f1781c" fill-opacity="1.000000" r="0.500000" />
    <circle cx="58.356221" cy="68.228182" fill="#f1781c" fill-opacity="1.000000" r="0.500000" />
    <circle cx="21.213596" cy="44.368924" fill="#f1781c" fill-opacity="1.000000" r="0.500000" />
    <circle cx="39.091518" cy="78.487934" fill="#f1781c" fill-opacity="1.000000" r="0.500000" />
    <circle cx="1.612870" cy="37.071970" fill="#f1781c" fill-opacity="1.000000" r="0.500000" />
    <circle cx="55.864161" cy="17.262228" fill="#f1781c" fill-opacity="1.000000" r="0.500000" />
    <circle cx="14.794642" cy="69.101487" fill="#f1781c" fill-opacity="1.000000" r="0.500000" />
    <circle cx="52.349369" cy="21.680383" fill="#f1781c" fill-opacity="1.000000" r="0.500000" />
    <circle cx="24.898024" cy="64.999561" fill="#f1781c" fill-opacity="1.000000" r="0.500000" />
    <circle cx="11.428954" cy="34.760064" fill="#f1781c" fill-opacity="1.000000" r="0.500000" />
    <circle cx="63.200313" cy="58.501908" fill="#f1781c" fill-opacity="1.000000" r="0.500000" />
    <circle cx="27.131386" cy="18.529127" fill="#f1781c" fill-opacity="1.000000" r="0.500000" />
    <circle cx="25.708685" cy="72.370345" fill="#f1781c" fill-opacity="1.000000" r="0.500000" />
    <circle cx="71.143533" cy="29.008597" fill="#f1781c" fill-opacity="1.000000" r="0.500000" />
    <circle cx="66.525884" cy="67.901879" fill="#f1781c" fill-opacity="1.000000" r="0.500000" />
    <circle cx="50.969613" cy="56.867064" fill="#f1781c" fill-opacity="1.000000" r="0.500000" />
    <circle cx="38.883845" cy="71.646290" fill="#f1781c" fill-opacity="1.000000" r="0.500000" />
    <circle cx="68.251069" cy="28.806100" fill="#f1781c" fill-opacity="1.000000" r="0.500000" />
    <circle cx="16.952574" cy="16.086656" fill="#f1781c" fill-opacity="1.000000" r="0.500000" />
    <circle cx="34.867690" cy="34.076733" fill="#f1781c" fill-opacity="1.000000" r="0.500000" />
    <circle cx="11.684322" cy="27.995082" fill="#f1781c" fill-opacity="1.000000" r="0.500000" />
    <circle cx="33.589440" cy="72.833708" fill="#f1781c" fill-opacity="1.000000" r="0.500000" />
    <circle cx="33.091906" cy="38.227631" fill="#f1781c" fill-opacity="1.000000" r="0.500000" />
    <circle cx="47.055057" cy="48.342475" fill="#f1781c" fill-opacity="1.000000" r="0.500000" />
    <circle cx="70.145970" cy="51.812900" fill="#f1781c" fill-opacity="1.000000" r="0.500000" />
    <circle cx="39.401795" cy="47.446830" fill="#f1781c" fill-opacity="1.000000" r="0.500000" />
    <circle cx="28.287327" cy="58.094952" fill="#f1781c" fill-opacity="1.000000" r="0.500000" />
    <circle cx="45.665016" cy="45.325466" fill="#f1781c" fill-opacity="1.000000" r="0.500000" />
    <circle cx="44.369755" cy="32.107509" fill="#f1781c" fill-opacity="1.000000" r="0.500000" />
    <circle cx="26.532029" cy="31.708652" fill="#f1781c" fill-opacity="1.000000" r="0.500000" />
    <circle cx="56.184840" cy="42.551669" fill="#f1781c" fill-opacity="1.000000" r="0.500000" />
    <circle cx="29.991607" cy="2.824025" fill="#f1781c" fill-opacity="1.000000" r="0.500000" />
    <circle cx="45.288400" cy="5.007195" fill="#f1781c" fill-opacity="1.000000" r="0.500000" />
    <circle cx="18.329274" cy="39.427898" fill="#f1781c" fill-opacity="1.000000" r="0.500000" />
    <circle cx="18.105080" cy="11.100323" fill="#f1781c" fill-opacity="1.000000" r="0.500000" />
    <circle cx="57.566509" cy="21.492967" fill="#f1781c" fill-opacity="1.000000" r="0.500000" />
    <circle cx="13.824603" cy="42.066691" fill="#f1781c" fill-opacity="1.000000" r="0.500000" />
    <circle cx="56.023798" cy="67.685897" fill="#f1781c" fill-opacity="1.000000" r="0.500000" />
    <circle cx="39.126584" cy="12.165624" fill="#f1781c" fill-opacity="1.000000" r="0.500000" />
    <circle cx="34.511189" cy="78.105777" fill="#f1781c" fill-opacity="1.000000" r="0.500000" />
    <circle cx="41.280640" cy="31.261686" fill="#f1781c" fill-opacity="1.000000" r="0.500000" />
    <circle cx="18.268054" cy="18.621874" fill="#f1781c" fill-opacity="1.000000" r="0.500000" />
    <circle cx="73.731387" cy="21.442666" fill="#f1781c" fill-opacity="1.000000" r="0.500000" />
    <circle cx="35.229005" cy="58.478648" fill="#f1781c" fill-opacity="1.000000" r="0.500000" />
    <circle cx="43.176424" cy="52.143790" fill="#f1781c" fill-opacity="1.000000" r="0.500000" />
    <circle cx="64.932232" cy="25.149306" fill="#f1781c" fill-opacity="1.000000" r="0.500000" />
    <circle cx="45.868958" cy="58.204210" fill="#f1781c" fill-opacity="1.000000" r="0.500000" />
    <circle cx="28.279909" cy="73.849480" fill="#f1781c" fill-opacity="1.000000" r="0.500000" />
    <circle cx="35.092146" cy="44.285730" fill="#f1781c" fill-opacity="1.000000" r="0.500000" />
    <circle cx="57.687614" cy="5.805034" fill="#f1781c" fill-opacity="1.000000" r="0.500000" />
    <circle cx="67.543928" cy="17.074974" fill="#f1781c" fill-opacity="1.000000" r="0.500000" />
    <circle cx="32.712224" cy="63.324883" fill="#f1781c" fill-opacity="1.000000" r="0.500000" />
    <circle cx="66.788228" cy="47.514420" fill="#f1781c" fill-opacity="1.000000" r="0.500000" />
    <circle cx="48.227573" cy="17.458852" fill="#f1781c" fill-opacity="1.000000" r="0.500000" />
    <circle cx="39.620997" cy="25.185688" fill="#f1781c" fill-opacity="1.000000" r="0.500000" />
    <circle cx="69.094289" cy="60.626274" fill="#f1781c" fill-opacity="1.000000" r="0.500000" />
    <circle cx="53.197736" cy="46.938583" fill="#f1781c" fill-opacity="1.000000" r="0.500000" />
    <circle cx="54.334661" cy="51.549080" fill="#f1781c" fill-opacity="1.000000" r="0.500000" />
    <circle cx="64.189031" cy="63.259110" fill="#f1781c" fill-opacity="1.000000" r="0.500000" />
    <circle cx="77.276298" cy="49.623700" fill="#f1781c" fill-opacity="1.000000" r="0.500000" />
    <circle cx="66.585899" cy="12.155081" fill="#f1781c" fill-opacity="1.000000" r="0.500000" />
    <circle cx="65.631304" cy="51.920532" fill="#f1781c" fill-opacity="1.000000" r="0.500000" />
    <circle cx="14.887115" cy="59.885623" fill="#f1781c" fill-opacity="1.000000" r="0.500000" />
    <circle cx="72.400531" cy="55.099772" fill="#f1781c" fill-opacity="1.000000" r="0.500000" />
    <circle cx="40.682643" cy="3.575195" fill="#f1781c" fill-opacity="1.000000" r="0.500000" />
    <circle cx="63.802678" cy="53.637928" fill="#f1781c" fill-opacity="1.000000" r="0.500000" />
    <circle cx="43.103372" cy="54.244348" fill="#f1781c" fill-opacity="1.000000" r="0.500000" />
    <circle cx="63.227187" cy="34.268050" fill="#f1781c" fill-opacity="1.000000" r="0.500000" />
    <circle cx="63.507151" cy="38.031077" fill="#f1781c" fill-opacity="1.000000" r="0.500000" />
    <circle cx="23.050362" cy="59.773581" fill="#f1781c" fill-opacity="1.000000" r="0.500000" />
    <circle cx="62.010590" cy="11.996952" fill="#f1781c" fill-opacity="1.000000" r="0.500000" />
    <circle cx="60.006098" cy="23.026235" fill="#f1781c" fill-opacity="1.000000" r="0.500000" />
    <circle cx="60.754369" cy="41.497060" fill="#f1781c" fill-opacity="1.000000" r="0.500000" />
    <circle cx="9.615023" cy="21.871761" fill="#f1781c" fill-opacity="1.000000" r="0.500000" />
    <circle cx="46.426536" cy="77.958406" fill="#f1781c" fill-opacity="1.000000" r="0.500000" />
    <circle cx="49.986114" cy="7.596616" fill="#f1781c" fill-opacity="1.000000" r="0.500000" />
    <circle cx="21.909345" cy="9.203554" fill="#f1781c" fill-opacity="1.000000" r="0.500000" />
    <circle cx="2.163881" cy="32.888491" fill="#f1781c" fill-opacity="1.000000" r="0.500000" />
    <circle cx="74.515828" cy="52.104009" fill="#f1781c" fill-opacity="1.000000" r="0.500000" />
    <circle cx="52.276713" cy="52.211314" fill="#f1781c" fill-opacity="1.000000" r="0.500000" />
    <circle cx="7.208322" cy="60.170415" fill="#f1781c" fill-opacity="1.000000" r="0.500000" />
    <circle cx="33.271913" cy="40.411171" fill="#f1781c" fill-opacity="1.000000" r="0.500000" />
    <circle cx="56.899258" cy="10.725997" fill="#f1781c" fill-opacity="1.000000" r="0.500000" />
    <circle cx="29.703218" cy="62.625330" fill="#f1781c" fill-opacity="1.000000" r="0.500000" />
</svg>
